<svg height="494" width="720" xmlns="http://www.w3.org/2000/svg">
<rect height="494" fill="#555" width="720"></rect>
<text fill="#7f7" font-family="Courier New" font-size="12" xml:space="preserve">
<tspan x="10" y="26">12 megabytes installed</tspan>
<tspan x="10" y="42"></tspan>
<tspan x="10" y="58">node_modules</tspan>
<tspan x="10" y="74">└─┬ react-scrollbar@0.5.1 </tspan>
<tspan x="10" y="90">  ├─┬ config@1.25.1 </tspan>
<tspan x="10" y="106">  │ └── json5@0.4.0 </tspan>
<tspan x="10" y="122">  ├─┬ line-height@0.1.1 </tspan>
<tspan x="10" y="138">  │ └── computed-style@0.1.4 </tspan>
<tspan x="10" y="154">  ├─┬ react@15.5.4 </tspan>
<tspan x="10" y="170">  │ ├─┬ fbjs@0.8.12 </tspan>
<tspan x="10" y="186">  │ │ ├── core-js@1.2.7 </tspan>
<tspan x="10" y="202">  │ │ ├─┬ isomorphic-fetch@2.2.1 </tspan>
<tspan x="10" y="218">  │ │ │ ├─┬ node-fetch@1.6.3 </tspan>
<tspan x="10" y="234">  │ │ │ │ ├─┬ encoding@0.1.12 </tspan>
<tspan x="10" y="250">  │ │ │ │ │ └── iconv-lite@0.4.15 </tspan>
<tspan x="10" y="266">  │ │ │ │ └── is-stream@1.1.0 </tspan>
<tspan x="10" y="282">  │ │ │ └── whatwg-fetch@2.0.3 </tspan>
<tspan x="10" y="298">  │ │ ├─┬ promise@7.1.1 </tspan>
<tspan x="10" y="314">  │ │ │ └── asap@2.0.5 </tspan>
<tspan x="10" y="330">  │ │ ├── setimmediate@1.0.5 </tspan>
<tspan x="10" y="346">  │ │ └── ua-parser-js@0.7.12 </tspan>
<tspan x="10" y="362">  │ ├─┬ loose-envify@1.3.1 </tspan>
<tspan x="10" y="378">  │ │ └── js-tokens@3.0.1 </tspan>
<tspan x="10" y="394">  │ ├── object-assign@4.1.1 </tspan>
<tspan x="10" y="410">  │ └── prop-types@15.5.8 </tspan>
<tspan x="10" y="426">  └─┬ react-motion@0.4.8 </tspan>
<tspan x="10" y="442">    ├── create-react-class@15.5.2 </tspan>
<tspan x="10" y="458">    ├── performance-now@0.2.0 </tspan>
<tspan x="10" y="474">    └── raf@3.3.0</tspan>
</text>
</svg>
